/* XPM */
static char *_1bb6dedb4aa4865e081dd7c57813836[] = {
/* columns rows colors chars-per-pixel */
"32 32 6 1 ",
"  c #100C0C",
". c #161212",
"X c #1F1F25",
"o c #2A2931",
"O c #575763",
"+ c #919499",
/* pixels */
"+OooooooOOOOO+++++++++++++++++++",
"oXXXXXXXXXXoooOOOOOOOOOOOOOOOOOO",
"XX                    ..........",
"XX                   ...........",
"+X                  ............",
"+o                 .............",
"+o                ..............",
"+o               ...............",
"+o              ............... ",
"+o             ...............  ",
"+o            ...............   ",
"+o           ...............   .",
"+o          ...............   ..",
"+o         ...............   ...",
"+o        ...............   ....",
"+o       ...............   .....",
"+o      ...............   ..... ",
"+o     ...............   .....  ",
"+o    ...............   .....   ",
"+o   ...............   .....    ",
"+o  ...............   .....     ",
"+o ...............   .....      ",
"+o...............   .....       ",
"+o..............   .....        ",
"Oo.............   .....         ",
"Oo............   .....          ",
"Oo...........   .....           ",
"Oo..........   .....            ",
"Oo.........   .....             ",
"+o........   .....              ",
"+o.......   .....               ",
"+o......   .....                "
};
