/* XPM */
static char *_9d0d611c6c9449daf3d5f3c64103a5a[] = {
/* columns rows colors chars-per-pixel */
"115 115 15 1 ",
"  c None",
". c #2B1C1D",
"X c #2B230F",
"o c #3A2912",
"O c #101820",
"+ c #56381D",
"@ c #49342C",
"# c #63462B",
"$ c #744B30",
"% c #7E6952",
"& c #A13560",
"* c #DD6D7F",
"= c #EFA5B1",
"- c #E9B7CB",
"; c #F3CBD2",
/* pixels */
"                                                       **                                                          ",
"                                                       *-=       *                                                 ",
"                                                        *-*** -***                                                 ",
"                                                      **-=*-=-**=*                                                 ",
"                                                  *  ******-;=-*-=         *******                                 ",
"                                                  **  *--*--===-*=          **===**** *                            ",
"                                                  ;;****-;;;;=;****    *** *---====-***&                           ",
"                                             *     ;;*-==;;;;----;* &&$*==*--===;--***=&&                          ",
"                                            *;*    ----*-;;;====-******-===---;===--==***                          ",
"                                            *;*   &**----;;;;=====-**----==;---;=;;=-****&                         ",
"                                            ;;*   &&&-*--;;;;;-*&&& **-=;;=;;=;;;;;;==--*&                         ",
"                                           * ;;*  &****-;;;=;*--*&* *-=;;;;;;;-;;;;;=--****                        ",
"                                 *** *     =**-=**-&&&---=====---*&*-=====;;=;;;;;=;=;-==*&*                       ",
"                                *;;; * ******==**-&--&*-*=-=---*;**&**==;==;;=;;;;;;-;==-***&                      ",
"                                *;*******;;;*;;;;;=-&&&**--*----*;&***-==;==;==;;;===;-;***=*&                     ",
"                                 **;*==;*=-*;;;;;;;&-*&*------***&**=******====;;;==;;;====*;*                     ",
"                                **;;;=;;;=-*==-;;;===-&&&-*---&&**==***==*;;******=;;;==--****                     ",
"                                =**;-;;;---;&&-=;;==-&--&&&-&*&****====-==;*===***;;=;;=**=--*&                    ",
"                                **==-;;==*;*&*----;------*&-&*&-*==*=;;==;;-=;*-**;;;;;;*=--***                    ",
"                            * **--=--&-;-*-&*---==-===----***&&*-=;=;;;;;;==;;==--*;;;;;;;;;==*&**                 ",
"                           *;*--==&&&=&&=;*&*&-*==*=*=&*-*-*&&*--===;;;;;;=;;--==*;;;;;;;;;;=***=*                 ",
"                           *;**--==;*;;;=*=&&&*===---&;&-&--*-**=;=;;;;;;;;;=;---**;;;;;;==;**==-*                 ",
"                           ***-=--=&&**=;-=;*&&*&-*--&*=;-*---**;;;;;;;;;;;=;;;;--*;;;;;;;;*===-**                 ",
"                            *-===;=&*--**=;;-=&=&&&&-&=*;**---**;;;;;;;;;;;;;;;;;-**;;;;===;;=*---*                ",
"                          ****-=;;&*&***=;;=;=-=*&-*&-***&**--&;--;;;;;;;;;;;;=-=---*;=;;;;;==****                 ",
"                          *-----;&*****--;;;;;;;;*&&&==--*&*&-;;-;;;;;;;;;;;;;--=--=-*;;;=;----=**                 ",
"                        *******==&&&&&-;;;;;;;;;;;;;==;;*-*&&*;---;;;;;;;;;===;;-==**;;;;;;;;;-==-* *              ",
"                       &=*-*==*-=;;;&*--;;;;;;;;;;;;;;;;;;=-&*;;;;-;;;;;;;;;;;--=-&&*;;;;;;;;;;=&*****             ",
"                      &*--*=;*-===;&****-;-;;;;;;;;;;;;;;=**=&*;;;-;;;;;;;;;;;;-==-&=;;;;;;;-;*=-&*&&*             ",
"                      &*&-*;;&-&&==&&&*---;;;;;;;;;;;;;;;;=**&&*;;*-;;*;;;;;===;-&=&&;;;;;-;;=;---&& &             ",
"                      &&&*&---&==&;;&*--*-**-;;;;;;;;;;;;--=-&--**---;*-;-;-*===-=&&=;;;;-;-=;;-**&                ",
"                       *&&&**-*&=;;&*-&-***-;;;;;;;;;;;;;=-**&**&***-;;*;;---&&&&&;==**;;;;;--*-&&                 ",
"                       **&&&&**&=;&****&*--;;;;;;;;;;;;-;;---&*-&*&&--;*-*-*-;;;&&=&&*;;;;;;&-****& ;              ",
"                     ;*--=&#o&&&;;&&**&*--;;;;;;;;;;;;;--;--&***;&-&*&;&*&;-;;---==&--*=;;;-;&-&*&&;*;             ",
"                     ;*-*=- +-;-;;&;&&****-;*;=;=;;=;;;*--**&&*&-;-&*&-&*&&&=;=;--&&&-&--;;;;&-*&   &&             ",
"                     ;;*-*-- *;=;;=*&&&**---*;;;;;==-;-*&--o;&;;;;;&&*&&&=======;=&==&---;;&&&***&                 ",
"                      ;*-*****=;;===;&;&***-*-*;;;;-=---*&o&=&&&*;;-&**&-=-&&&=;;;=*&*-**;&;-*&*&&***  **          ",
"                      ***;;;;;-;;;;;;*=&*&&--**-==;;-=-**&o;==&*-;;;;;-&&&*==&&-;;--&**&&&;;***&  *==* *=&         ",
"                     **===*-;;;;;;;;;-*&&*&-&*--*===-----o+o=&*$-;;;;*;;;;==&*--;;;-&&&-*&&*&**&  -*==*--*&        ",
"                      *;;;;;;;;;;;-*;-*&--&***---*-==---***-&*$-;;;**;=;;;;;&&-;;-;---*---&*&&&&&&-&--*-&*&        ",
"                  ** *--*--;;;;;;;;*&&*&-**&&**-*&**;-***--;-**;;;;*-;=;;;;===&----*-**---*&**&&oX&---&*&&&        ",
"                   *******;;;;;;-;;;&&&***&+&-***&&--&;.**-;;=;;;;*;*-;;;;=-&&*&-----***--&**&ooX&*-**&&&          ",
"                   *----;;;;;;;;=----*&&&& O&--*&;;&*&; *-=;;;;;;;;;-;-----==&**&---*-&**-&&&oXoo&**&&&&           ",
"                   *--*--;;;;;;;--;-=-*&+--O+&-&;;;&&;-*-;;;=;;;;;-=-=--*----**&&--&--&&&*&oXooo &&&  &            ",
"                   *-**--*-;-;;;-=-*&&&XX%-O+o&&=;;==****-==;;=;;;---=*-&&*-&*&;*--&&-&**&Xoo  O                   ",
"                  *-**&&-&---;-;--*-*& OXX%Ooo-==;;==*-----;;;-;;;---**-&&&*&&&;*-OO*&&##*** O**                   ",
"                  &&&&;;&---**-;-*&&*&- OX+%o***;=;*=****&==**------&*&*-&X&&**-*&**-%**O*==* *** ****&            ",
"                      ;&*-**&----&&*&o-- OX+%*=;;;;=&**&&****&*-&*&&&*&&*&X& *--*&*****=***==******;*              ",
"                       &**&&&&-**&*--o--- **+-*==;--*&&#&**--&&*&&&&Oo*-*&o **--*&*-==*-==--==--*--****            ",
"                       &&&;O&o***&&*-o-=***&&-&--*-&*&#%&*&*-& &&$$oo%&&&&&&&&--&&**-=--==;;;=;=--*** &            ",
"                         ;;;O%#&&=&&-o--*-- O&---&*&&&O+&*&&&&-&*--o%+XXoo&OO&&&%**--=;;;==;;;;;;==--*             ",
"                         ;; O#***==**Xo-**---;;*-&&&--OO%&*-&**-===+XXXo  ;;;;$o*----===;;;;;;;;;;=****            ",
"                             O*==;==;&o*&*;;;;*&-&&--- O#&&&==;;;;==XXo****;;;$o**--=-==;;;;=;;;;=;=;*&*           ",
"                             O-*;;;;;=&*&&&&;&&&&&=*---O#-;*==;;;===&o*===****o*o*-==-=;;;;;;=;;;;=;--***          ",
"                            &&-=-;;;;==& &**&* &&+=---&-=--;;;;====-*&-*;;-==**=*-==-=;;=;;;;;;;=;;--=&&           ",
"                           &  &--;;;&=&&;&*&&&-oo+O=--&**&%;;-===*-&*&=;;;=======**=-;;=;;;;;;=;==;;*-*&           ",
"                             &*-==;=&oo;;&*-*XXX##+**-&&OX&o*;;;-&*&&&**;**;=;;=;====;==;;;;;;=;;==----*&          ",
"                             &**==&&%++o;    *OOO##+*-*-O+%O&*-**&&&*-=**=*;;=;==-==;==;;=;;;;=;;-----&&           ",
"                             &&***&OO*%*+;**-*****#+O-****O &**&&&&---;;;==;;;;;;=;-*===;;;====*=--=--*&           ",
"                               *==*O*=&**-**--*--*O#+*&**=&*&&&+X&**--;;;;;;;;;;;--;-*;=;;==;=--**==-***&          ",
"                               -*==*--*&---*;;--***O+O&-&&&& &+XXO-*-=;;;;;;;;;;;;;;;=;;;=;;;-=--*=&*-&*&          ",
"                             &&-&--*-&*&-==;;;;;=--*X+&&+oO  %+X**=-==;;;;;;;;;;;;;;;**;===;;*-=-**&&*&&&          ",
"                            &  &---&*&&===;;;;;;==--*Xoo+o **%+*--====;;;;;;;;;;;;;;==**-=====-**&&& &&            ",
"                              &*-**&&&-==;;=;=;;;--* O***o***%+**====;;;;;;;;;;;;;=;=*--*-===*-***&& &             ",
"                              &**&&&&===;;==--==;---***==*-*=&****;;;;;;;;;;;;;;;;;===*-*&**--&&*&&                ",
"                              &&&  &--==;;====-;;====o-*==*--*&**==;;;;;;;;;;;;;;;;-;==**-&*-***&                  ",
"                                    ***=****;;=-*;*&&&-&--*-&*&*-=;;;;;;;;;;;;;;;;;=---*&--&*&**&                  ",
"                                    *==*&*=&---***&&* &---&*&*&-=;;=;;;;;;;;;;;;;=;==--***&&*&&&&                  ",
"                                    -*==*--*&&*&**&-*&*-**&&&***=====;;;;;;;;;;;=;;----*-&o&&                      ",
"                                  &&-&--*-&*&&*&&&&--&**&&&&&*-*==-==;=;;;;;==;;==;==--**&O&+                      ",
"                                 &  &---&*&&&&&&O&*-*&&&OO&O*==----=;=;=;=;=;=;=;===**==   Oo#                     ",
"                                   &*-**&&&&O&&O+%#*&*OOoO#OO***-=====;===;;==;===--**** &  O#                     ",
"                                   &**&&&&    Oo++%o&&&ooO%+&=--====-==;=;=;===--==--***&                          ",
"                                   &&&  &      Oo++X##o-*O%&**----*==;;;=;====;==**--=**&                          ",
"                                                Oo##X#*-&#%&&*****==;;==;====-==---**&&*&                          ",
"                                                 OoO#X&&&#%&X&*=-====*=;;-====**=-&&** &                           ",
"                                                  OoX#XXO#+XX&*&&--**==;*-*-==-*--*&&&                             ",
"                                                   OoXX++#+XO&&X&***&&=**--*-**&*-&&&&                             ",
"                                                    OXX+O++OX#oX&*&&O&***-*&**--&***&                              ",
"                                                     oo..++O+#X &&OO &*&-**&&--*&&*&&                              ",
"                                                     OoX.+Oo+#X  &   &*&--&*&&-*&*&&&                              ",
"                                                      oX.+Xo+#X       &*-**&&&*&&&&&                               ",
"                                                      OXO+Xo+#X       &&&&&   &                                    ",
"                                                      OXOOXo+oX                                                    ",
"                                                      OXXoo%+oX                                                    ",
"                                                      OXX#o%+oX                                                    ",
"                                                      OXX#o%+oX                                                    ",
"                                                       O+##%+o.                                                    ",
"                                                       O+%#%%+.                                                    ",
"                                                       O+%#+%+.                                                    ",
"                                                       O+%o+%+.                                                    ",
"                                                       O+%++%+X.                                                   ",
"                                                       O+%++#%X.                                                   ",
"                                                       O+%o+#%X.                                                   ",
"                                                      OX+%o++#%.                                                   ",
"                                                      OXX%#o+#%.                                                   ",
"                                                      OXX%#o+#%.                                                   ",
"                                                      OXX%#o++#.                                                   ",
"                                                      OX%##+X+#.                                                   ",
"                                                      Oo%#o+X+#.O                                                  ",
"                                                      Oo%#o+X+#XO                                                  ",
"                                                      O#%#o+Xo+#O                                                  ",
"                                                      O##oo+XXo+.O                                                 ",
"                                                     OO#oXo+XXo+.O                                                 ",
"                                                    O@O#oXo+Xo+XO@                                                 ",
"                                                    @OoooXO++oXXO@                                                 ",
"                                                  @OO%ooo%Oo+OOO@@                                                 ",
"                                                @@O%#oXOoo%O.X.O@@@                                                ",
"                                               @O%o#.o+O.oX#Oo+.OO@@@                                              ",
"                                             @@O%o#.oX++O.o%#Oo+..OO                                               ",
"                                            @@Oo#OOOOOoOOo.%O@OOoo..O                                              ",
"                                             @@OO@@@@OO@@Oo.O@@@OOoXO                                              ",
"                                             @@@@@@@@O@@@@OoO@@@@@OO@@                                             ",
"                                               @@@@@  @@@@OO@@                                                     ",
"                                                         @@@@                                                      "
};
