/* XPM */
static char *_e5e4044c7c6469fcfce1846d9611349[] = {
/* columns rows colors chars-per-pixel */
"64 64 6 1 ",
"  c None",
". c #303032",
"X c #663B24",
"o c #8F5332",
"O c #BA7047",
"+ c #DA9067",
/* pixels */
"                                                                ",
"                                                                ",
"                                                                ",
"                                                                ",
"                                                                ",
"                                                                ",
"                                                                ",
"                                                                ",
"                                                                ",
"                                                                ",
"                                                                ",
"                                                                ",
"                                                                ",
"                                                                ",
"                                                                ",
"                                                                ",
"                                                                ",
"                                                                ",
"                                                                ",
"                                                                ",
"                                                                ",
"                                                                ",
"                                                                ",
"                                                                ",
"                                                                ",
"                                                                ",
"                                                                ",
"                                                                ",
"                                                                ",
"                                                                ",
"                                                                ",
"                                                                ",
"                                                                ",
"                                                                ",
"                                                                ",
"                                                                ",
"                                                                ",
"                                                                ",
"                                                                ",
"                                                                ",
"                                                                ",
"                                                                ",
"                                                                ",
"                                                                ",
"                         ...       ...                          ",
"                        .+Oo.     .+Oo.                         ",
"                       .+OooX.   .+OooX.                        ",
"                        .....     .....                         ",
"                         .o.  ...  .o.                          ",
"                         .O. .+Oo. .o.                          ",
"                         .+..+OooX..O.                          ",
"                         .+. ..... .O.                          ",
"                         .+.  .o.  .O.                          ",
"                         .+.  .O.  .O.                          ",
"                         .+.  .+. .O.                           ",
"                          .+. .+. .O.                           ",
"                          .+. .+. .O.                           ",
"                          .+. .+. .O.                           ",
"                           .+..+. .o.                           ",
"                           .+..+..o.                            ",
"                           .O..+..o.                            ",
"                            .O.O.o.                             ",
"                            .o.o.o.                             ",
"                             .....                              "
};
