/* XPM */
static char *_d929583916d49aeec88cbc5164ea4e8[] = {
/* columns rows colors chars-per-pixel */
"113 113 19 1 ",
"  c None",
". c #2B1C1D",
"X c #2B230F",
"o c #3A2912",
"O c #101820",
"+ c #462B11",
"@ c #442E19",
"# c #56381D",
"$ c #58381C",
"% c #49342C",
"& c #074337",
"* c #63462B",
"= c #744B30",
"- c #7E6952",
"; c #D59151",
": c #F5AD47",
"> c #FFA749",
", c #FBCE7B",
"< c #F0EAA2",
/* pixels */
"                                                                             ::                                  ",
"                                                                    :       >,:                                  ",
"                                                                    :::, :::,:                                   ",
"                                                                    :>::,>,:>,::                                 ",
"                                                                    >,:,><,::::::                                ",
"                                                                    >:,>>>,,:,,:                                 ",
"                                            ::,   ,::              ::::,>><>,,:::                                ",
"                                          ::,,,,::>>::         ==  :,,,,,<<>>>>,:                                ",
"                                           ::,><>>>::    ::   ::o::::,>>>>>>>,:,,,,                              ",
"                                           :,><<>>>>:   :>>:::>>:o:,>>>>><<>,,,,,::;                             ",
"                                          :,>>>>><,>>: :::>>>>,>>>:;;;:,<<<,:,,:,;;;                             ",
"                                        ::::,>><<>,;;  :>>:><>>>>>,:;:,,:<,:::,::::;                             ",
"                                        :,,,,,<<,,,:;:::><><<>><>>:;:,,,:::::,,,;;;,   ,::                       ",
"                                        ::::;>>::,,,:;,:>>><<>><::;::::,,::,::,:;,,;,::>>::                      ",
"                                        ::;;::::;:,;:;,><><<<><<<<;;::,,,::,,::;;;,><>>>::                       ",
"                                       ;;; ;::,,;;:;;;><<<<<<<<<<<;X;:::,;::,,:;:,;<<>>>>:                       ",
"                                           ;:;:,;o;;==>><<<<<<<<<<X#;:;;,,;:,;;;;>>>>><,>>:                      ",
"                                           ;:;;;;:;:X,><<<<<<<<<<X#<;;,;:;,;;;::;,>><<>,;;                       ",
"                                            ;:,;::,XX,<<<<<<<<<<<X#<<<>;:;,;::;,,,,<<,,,:;:::                    ",
"                         :  ::   ::::       ;;;:;::Xo>>><<<<<<<<Xo#o#<<;;::o;::::;>>::,,,:;,:                    ",
"                         >::>>:::>>:  :      ;:XX;,X>>><<<<<<<<<Xo#<oo#>;;ooo::;;::::;:,;:;                      ",
"                       ::>>,,>>,>>>:::>     ;:;:XX,X,><<>##<<<<<<o#<<<o##oo>;;; ;::,,;;:;;;                      ",
"                :   :: :>>>>,>>>>>,,>,,,:,,::::::X#X,<<<><o#<>><<<<>>><oo=,::   ;:;:,; ;;                        ",
"                :::::>:::>>>>,>>>,,>>,>>,,:::;;;,,Xo:<<<,<<o#=<>><<<>>>>oo=,,:  ;:;;;; ;                         ",
"              :::,>>:,>>,>><>>>>>>>>>>>>>>>,,:;:,,XXo,,<<<<<o=<o<<<<>><>>oo,::   ;:,;:                           ",
"              >>>:,>,,>><<><>><>>><<>><>>>>>,,::::,Xo>><<<>oooo<<>>>;;>;;ooo;;   ;;;:;                           ",
"              :>>>,>>,>>><<<>><<><<<><<>>,,,,:;;:,,,o#X<<>o<<<><<>><<>;,;;oo::   ooo  ;                          ",
"            ::,,>>>>>>><>><<><<<<<<<<<<>>>>,,,:::,:,o#X<>oo<><<>>><:<:;,:;;>,:o  :::  ::                         ",
"          ::,,>>><<>><><><<<><>><<><<<<<<<<>>>>>>::::o#<>>>>>>><>;,:;;;,:::,:ooo::>>: :>;                        ",
"           ::,,>><<<<<><<<<<<<<><<<<<<<>>><<>>,,::,::o#;;<><<>><<:;:>::;>,:>,::o ,:>>:,,:;                       ",
"           :,>,,>><<<><<<<<<<<<<<<<<<><>>>><>,::::,::oo#;;;<<<<<;:;>,:,;<,::::::;,;,,:,;:::   ::::               ",
"          :,>>><>>><<<<>>><<<<<<<<<<<<<>><><<>>,,:,,,:o#><,:,>,,,;>>:,>>>,,:,,:oo;,,,;:;:>>:::>>:  ::::::        ",
"        ::::,><<<<><<<>>><<<<<<<<<<<<<>><<<<<>,,:::,,:o#X:::,,::,;::::,>><>,,:::;:,::;;:::>>>>,>>>:>>>:::        ",
"        :,,,,,<<<<<<<<<<<<<<<<<<<<<<<<>>>><><>,,>>::::ooX:>>:::>;,:,,,,,<<>>>>,:;::;;;;:>>:><>>>>>,><:,::        ",
"      ::::,>>>>><<><<<<<<<<<<<<<<<<<<<<<<><<<>>>>,::>:XoX,:>>:,,:;::,>>>>>>>,:,,,,;++::,><><<>><>>><<>>,,:       ",
"       :,>>>,,><<<<<>>><<<<<<<<<<<<<<<<<<<<<<>>>>,>>,:X;;,;,,:,;:;,>>>>><<>,,,,,::;::,,,>>><<>><<><<,,>>:        ",
"       :,>>,>>>><<<>>><<<<<<<<<<<<<<<<<<<<>><<>>>>>,::;;;;,,,;:;;;;;;:,<<<,:,,:,;;oo::,><><<<><<<<<><,,,::       ",
"      :,>>>>>>>>>><<<<<<<<<<<<<<<<<<<<<<<<<>>>>>>>,,,,:;;:,::;;;;::;:,,:<,:::,::::;o:,><<<<<<<<<<<>><,,,,:       ",
"      :::>,>>>>><<<<><<<<<<<<<<<<<<<<<<<<<<<><<<>>>>,:o;;::;;;;:;:;:,,,:::::,,,;:;++,>>><<<<<<<<<<<<,,,>,::      ",
"     :>>>>>><<><<><>><<<<<<<<<<<<<<<<<<<>><<<><<<>>>,:X;;;;;,;:::;::::,,::,::,,:;+;;;,><<<<<<<<<<<<<<>,>,,,:     ",
"     ::,>>>><<>>>><<>><<<<<<<<<<<<<<<<<<>>><<<>>>>>>>,:;     ,;  ;;::,,,::,,::::+@,,;,<<<<<<<<<<<<<<<<>>,,>,:    ",
"    :,,>>,><<>>><><<<><<<<<<<<<<<<<<<<<<<>><<<>>>>>>:::;      ;  ; ;:::,;::,,:;@@@:,>>>><<<<<<<<<<>>><<>>>::     ",
"    :,:>,,>,>,><<<<>>><<><<<<<<<<<<<<<<><>>>>>>,,>,,>,;;   :       ;:;;,,;:,:;:@o;;>>>><<<<<<<<<<<<<<<>>>>>::    ",
"    ::,,,,>,,>><><<<<<<>><><<<<<<<<<<<<<<<<>>>>>,>>,::Xo   :::, :::;; ;:;,;:;:@o;:,;,><<><<<<<<<<<<<<<<>>,,>,:   ",
"     :,>>,>>>>>>>><<<<<<>>><<<<<<<<<<<<<>>>>,,,>,,>,,,:oX  :>::,>,:>,:;:;,;;:@o;:,,,,<<<><><<>><<<<>>><<>>,::    ",
"    :,>>,,,,>>>,>><<><<<>><<><<<<<<<<><<><>>>,,,,,,,,:;Xo  >,:,><,::::;;:  ;;@o;,,,,:<<<><<<<<<>><<<>>>>>>,,,:   ",
"   ::,,,,,,>>>,,><<<<<<<<<<<>>><<<>><><<><>,,,>,,,,::;Xoo  >:,>>>,,:,,:;;     ;:,,,:>>><<<<<<<<<<<<<>><>>,,,::   ",
"     :::,>>>>>,>><><<><<><<<<><<<<<>>><<>>>,,>>>>,,,::;ooX::::,>><>,,::: ### ;::::,,,>><<<><<<<<<>>>>>>:<,::;;   ",
"    ;,;,>>,,,>>>>>><>><,>><<<<<<<<<<>><<<>>>,>>>,,,,,::;XX:,,,,,<<>>>>,:XXooX;;;:,,,,:<<<>><<<><<>><<><,,,:::    ",
"       ;:,,,>>>>>><>>>>,>,,,<<<<<<<<<<<<>>>>>>>,,::,,;;o::::,>>>>>>>,:,,,,ooXX;:,,:,::<<>>><><<>>><<<:,,:,;;:    ",
"      ;:,,,>>>>>><<<<<,,,,,,><<<<><<<<<>>>,,>>,,::,,,:;oX:,>>>>><<>,,,,,::;;;;:,,,:::<<<>>>>>>><><,<:::,::::;    ",
"     ;::::,,,,>>><<>>,>,,,,,>,<<<>><,>>>><>,,,,,::,,,::;oX;;;:,<<<,:,,:,;;  ;::::,,::,><><><<>><<:,:::,,,;:;;    ",
"     ;;::,,,:>>>>>>>,,>,,,,,,,>>,>>,,,>,,,,>>>,,:::,,,:;oX:;:,,:<,:::,::::; ;;::,,,::<>><<<<<<<<<:::,::,,:;      ",
"     ; ;:::,,,>>>>>>,>>,>,,,,>>>>>>>,,,,,>,,>>,,,:;:,;;;X:;:,,,:::::,,,;:;; ; ;:::,,,:,>><,:,>,,,>>:,,:::::;     ",
"       ;:;;,,,,::,>>,>>>>,,,>>>>>>>>>,,,,>>,,,,:,,;;:; ::;::::,,::,::,,:;     ;:;;,,,::::::,,,:,,>,::,,:;:;;     ",
"       ;; ;:;:,:::,>,,>>,,>,>>,>>>,>>,,,>>,,>,,::,; ;;  X;;::,,,::,,:::::;ooo ;;,;::,,,:,,::,::,,,,;:,:::;       ",
"          ;:;,:::,,>,,,>,>>,>,,,>>,,,,,,>>>,,>,:;;;o;    ;X;:::,;::,,:;:;;;;o;;::;,,,,,,,,,:::,,,,,:,:;::;       ",
"          ;;:::;;:,,,>,,,>>,,,,,>,,>,,,,>,>>,>:::;o      Xo;:;;,,;:,:::;    ;:,,,;,,,:,,::,::,,:,,::,:;;;;       ",
"           ;;;; ;;,,,,,,,,>,,,,,,,,>>,,,>,,>,,:,,:;       o;;X;:;,;:;::;   ;;::,>>;,,:;,,::::,,,:,::,;           ",
"                ;;:;:,:::,,,,>,,,,,,>>,>>:,,:,::,,:;      oo-X;:;,;:;;;;    :,>>>>::,:;,::;;::,:;::,,;           ",
"                ;;:;,:::;,:,>>,,>,,,>>>>,::,:,::;;;       ;o-X;;:  ;#;      X;;;:,:;;;:::;,;,:::;;,,:;;;         ",
"                 ;;:::;;::,,>,,,>>,,,>,>,::::::::;  ::    ;oo-X;;  ##;     X-:;:,,;<,;;;;::;,,:;;:;,:;::;        ",
"                 ;;;;; ;::::,:,,>,,,,,,,:,::,:;;:;   :: Xoo;o-X   ##;     X-:;:,,,:::::,,,;:;,; ;:;:;;:>;        ",
"                       ;:,:,,,:,,>,,::,:,,::,,;X;   :,,:;;;oo#-X  :;;    X::;::::,,::,::,,:; ;; ;,:;>:,,:;       ",
"                       ;:,::,,:,,::,:,:,,::::,oX#X  ;::; : ;o#-X >,;;   X-#X;;::,,,::,,:::::;  ;;,;,,:,;:;       ",
"                        ;:::,,,:,::,:,::,:;:::Xo#X   ;;; ;::;#;::,:X;  X-#X;; ;:::,;::,,:;:;;;;;;;,,,;::;;       ",
"                        ;;;::,:;::,,::;;::;;;;XXX#XX  ;  ;>::,>,:>,:; X-#X;   ;:;;,,;:,:::;     ;:,::::;         ",
"                          ;,:::;;,,:;:  ;:;  ;  XX#X    ;>,:,><,::::;;X#;X;   ;;X;:;,;:;::;     ;::;;:;          ",
"                          ;,,:;  ;,:;,   ;       XX#X   ;>:,>>>,,:,,;X#;X;     #X;:;,;:;;;;     ;;;  ;           ",
"                           ;,;   ;:;;;X######X    Xo#X  ;:::,>><>,,:::;X;     #X ;;:;;;oo                        ",
"                            ;;    ;   ;X:::XX:;XXXXXoX ;:,,,,,<<>>>>,:o;     #X   ;::;;;;;;;                     ",
"                                      ;;:>>: :>;;;ooo#;;::,>>>>>>>,:,:::     #X  ::,,;;;:>>;;                    ",
"                                      ; ,:>>:,,:; ;;X#X:,>>>>><<>,,:,,:;;    =X XX::,><<>>;:                     ",
"                                     ;;;,;,,:,;:;   ;o#X;;;:,<<<,::,:;;;    =##oX;:,><<>>>;;                     ",
"                                     ;  ;,,,;:;;;    ;oX:;:,,:<,::::::;:;  -#XXX;:,>>>>><,>>;                    ",
"                                       ;:,::;;;      ;o:;:,,;::::::,;;:;;#-XX;;::::,>><<>,;;:;                   ",
"                                       ;::;;;;       ;:;:::;,,::,:;:;;;XXXXo;  ;;,,,,<<,,;:;::;                  ",
"                                       ;;;  ;         X;;:;;,:::,;:;::;;Xo;;   ;:::;>>::,:,::;;                  ",
"                                                       ;X;;:;:;::;::;:;;;;      :;;:::;;::;:;                    ",
"                                                         ;:;;:,;:;:;;;;;        ; ;::,;;;:;;;                    ",
"                                                         ;;X;:;:;:;:;;            ;:;:,; ;;                      ",
"                                                         XXo;:;:;:;;;;            ;:;;:; ;                       ",
"                                                          XX;;&XoO                 ;:,:;                         ",
"                                                          XXo;;XoO                 ;;;;;;                        ",
"                                                           X#;X-oO                      ;                        ",
"                                                           X#o;#-oO                                              ",
"                                                           Xo#o#-oO                                              ",
"                                                           XX#o#-oO                                              ",
"                                                           OX##XoO                                               ",
"                                                          OXo-#o#O                                               ",
"                                                         OXo-#OoO                                                ",
"                                                        OXo-#Oo#O                                                ",
"                                                       OXo*-#OoO                                                 ",
"                                                       Xo*-#Oo#O                                                 ",
"                                                       Oo*-#oXO                                                  ",
"                                                       OX-##oXO                                                  ",
"                                                       OX-#oXXoX                                                 ",
"                                                        OXooXo#oOOOO                                             ",
"                                                        OOOOoXo--###OO                                           ",
"                                                         OXoOoXo---**#OO                                         ",
"                                                          OXo#O#oo#--*##OO                                       ",
"                                                           OXo#O##o#*-*o#.O                                      ",
"                                                            OOo##o#o#*--O#.O                                     ",
"                                                              Oo#oo#o#*--O#.O                                    ",
"                                                           OOOOOo#Oo#o#*-*O$.O                                   ",
"                                                          O-*######Oo#o#$-oO%.O                                  ",
"                                                         O-*o#oX#o#oOo#o#o*o#%%O                                 ",
"                                                        O-*oOOOo#*o#oO-oooOoo##%O                                ",
"                                                       OoOOO%%#-*oOOooO-*O%Oo**##OOO                             ",
"                                                      OOO%%%%O-*oO%%OoOo-*o%OOo*ooooO                            ",
"                                                          %%O-*oO%%%%OOOOO%%%OOOOOOO                             ",
"                                                            OooO     %%%%%%                                      ",
"                                                            OOO                                                  "
};
