/* XPM */
static char *_3907fdd9ddc4562e04d0cf35fc29aca[] = {
/* columns rows colors chars-per-pixel */
"87 87 15 1 ",
"  c None",
". c black",
"X c #0B1D0B",
"o c #0D220D",
"O c #0E270E",
"+ c #0F3D0F",
"@ c #0F420F",
"# c #0F440F",
"$ c #124D12",
"% c #165716",
"& c #196119",
"* c #1B661B",
"= c #1E6E1E",
"- c #33721F",
"; c #217621",
/* pixels */
"                                          ;                                            ",
"                                        ........                                       ",
"                                      ..%;%;ooo..                                      ",
"                                     ..%;%%%;oooo.                                     ",
"                                     .%..%%%;oooo..                                    ",
"                                    .%%.@...;Ooooo.        .......                     ",
"                                    .%%.---.;%oooo..      .%;%ooo..                    ",
"                                    .%%.--..;%oo..o.     .%%;%%ooo..                   ",
"                                    .%%.X..%;%o.......  .%%%;%%%ooo.                   ",
"                                    .%%;.%%%;%o.----..  .%%%;%%%oooo.                  ",
"                                    .%%;%%%%;%O.---..   .%%%;%%%oooo.                  ",
"                                    .%%;%%%%;%%.....    .%%%;%%%%ooo.                  ",
"                                    .%%;%%%%;%%oooo.    .%%%;%%%%ooo.                  ",
"                                    .%%;%%%%;%%oooo.    .%%%;%%%%o...                  ",
"                    .....           .%%;%%%%;%%oooo.    .%%%;%%%%.---..                ",
"                   .#;%oo..         .%%;%%%%;%%oooo.    .%%%;%%%%.----.                ",
"                  .%*;%ooo..        .%%;%%%%;%%oooo.    .%%%;%%%%.--..                 ",
"                 .%%;%%%ooo..       .%%;%%%%;...ooo.    .%%%.%%%%o...                  ",
"                .#%%;%%%Oooo.       .%%;%%%%.--X.oo.    .%..-.%%%ooo.                  ",
"                .%%%;%%%%ooo.       ....%%%%.---.oo.    ..X--.%%%ooo.                  ",
"                .%%**%%%%ooo.     ...---.%%%=.--.oo.    ..---.%%%ooo.                  ",
"               ....*%%%%%ooo.     ..----.%%%;....oo.    .%.--.%%%ooo.                  ",
"            ...---.*%%%%%ooo.       ..--.%%%;%..ooo.    .%%..%%%%ooo.                  ",
"             ..---.*%%%%%ooo.       .%..%%%%;%%oooo.    .%%%;%%%%ooo.                  ",
"               ..-.*%%%%%....       .%%;%%%%;%%oooo.    .%%%;%%%%ooo.                  ",
"                ..%*%%%%.---...     .%%;%%%%;%%oooo.    .%%%;%%%%ooo.                  ",
"                .%%*%%%%.----..     .%%;%%%%;%%oooo.    .%%%;%%%%ooo.                  ",
"                .%%*%%%%.--..       .%%;%%%%;%Ooooo.    .%%%;%%%%ooo.                  ",
"                .%%*%%%%%..o.       .%%;%%%%;%Oo.....   .%%%;%%%%ooo.                  ",
"                .%%*%%%%%ooo.       .%%;%%%%;%O.-----.. .%%%;%%%%ooo.                  ",
"                .%%*%..%%ooo.       .%%;%%%%;%O.---..   .%%%;%%%%ooo.                  ",
"                .%%..-.%%ooo.       .%%;%%%%;%Oo....    .%%%;%%%%ooo.                  ",
"                .%..--.%%ooo.       .%%;%%%%;%ooo.o.    .%%%;%%%%ooo.                  ",
"                .%..--.%%ooo.       ..#;%%%%;%ooooo......%%%;%%%%ooo.                  ",
"                .%%..-.%%ooo.   ....--.;%%%%;%ooooo%%%%%%%%%;%%%%ooo.                  ",
"                .%%*...%%ooo.   ..----.;%%%%;%ooooo;%%%%%%%;%%%%%ooo.                  ",
"                .%%*%%%%%ooo.     ..--.;%%%%;%ooooo;%%%%;;;%%%%%o..o.                  ",
"                .%%*%%%%%ooo.       ...;%%%%;%ooooo;;;;;%%%%%%%O..-..                  ",
"                .%%*%%%%%ooo.       .%%;%%%%.%ooooo;O%%%%%%%%%oo.---.                  ",
"                .%%*%%%%%ooo.       .%%;%%%.-..oooo;ooooOooooooo.----.                 ",
"                .%%*%%%%%ooo.       .%%;%%%.---.ooo;oooooooooooo.......                ",
"                .%%*%%%%%ooo.       .%%;%%%.--&.ooo;oooo....oooooo.                    ",
"                .%%*%%%%%ooo.....   .%%;%%%.--.oooo;ooo..--..oooo.                     ",
"                .%%*%%%%%o...&-..   .%%;%%%%..ooooo;ooo.---.ooo..                      ",
"                .%%*%%%%%o.---..    .%%;%%%%;%ooooo;ooo...-.o...                       ",
"                .%%*%%%%%o.--$.     .%%;%%%%;%ooooo;ooooo....                          ",
"                .%..;%%%%%o....     .%%;%%%%;%ooooo......                              ",
"              ....@-.%%%%%oo.oo......%%;%%%%;%ooooo.                                   ",
"              ..----.=%%%%%ooooooooo;o%;%%%%;oooooo.                                   ",
"                ..--.;%%%%%%ooooooooo;o;oooo;oooooo.                                   ",
"                 ....%;%%%%%%%Ooooooo;o;oooo;oooo...                                   ",
"                  .%%%%;%%%%%%%%%%%%%;%;oooo;oooo.--....                               ",
"                  .%%%%%;%%O%%%%%%%%%;%;%%oo;ooo.&---$.                                ",
"                   .%%%%%;...%%%%%%%%;%;%%%%;oooo.--..                                 ",
"                    .%%%%%.--.;;%%%%%;%;%%%%;oooo...                                   ",
"                     .%%%..--.%%;;;;;;%;%%%%;%ooooo.                                   ",
"                      .+%.---..%%%%%%;%;%%%.;%ooooo.                                   ",
"                       .......%%%%%%%;%;%..-.%ooooo.                                   ",
"                         ...%%%%%%%%;%%..---.%ooooo.                                   ",
"                            .........%%;.---.%ooooo.                                   ",
"                                    .%%;..-.;%ooooo.                                   ",
"                                    .%%;%...;%ooooo.                                   ",
"                                    .%%;%%%%;%ooooo.                                   ",
"                                    .%%;%%%%;%ooooo.                                   ",
"                                    ...;%%%%;%ooooo.                                   ",
"                                 ....-.%%%%%;%ooooo.                                   ",
"                                 .-----.%%%%;%ooooo.                                   ",
"                                  ..--&.%%%%;%ooooo.                                   ",
"                                    ...;%%%%;%ooooo.                                   ",
"                                    .%%;%%%%;%ooooo.                                   ",
"                                    .%%;%%%%;%ooo.o.                                   ",
"                                    .%%;%%%%;%oo.-....                                 ",
"                                    .%%;%%%%;%oo.----..                                ",
"                                    .%%;%%%%;%oo.--..                                  ",
"                                    .%%;%%%%;%oo....                                   ",
"                                    .%%;%%%%;%ooooo.                                   ",
"                                    .%%;%%%%;%ooooo.                                   ",
"                                    .%%;%%%%..ooooo.                                   ",
"                                    .%%;%%%.--.oooo.                                   ",
"                                    .%%;%%%.---.ooo.                                   ",
"                                    .%%;%%%.--..ooo.                                   ",
"                                    .%%;%%%.-..ooo.                                    ",
"                                    .%%;%%%%.%oooo.                                    ",
"                                     .%;%%%%;%ooo.                                     ",
"                                      .;%%%%;%oo..                                     ",
"                                       ..%%%;%o..                                      ",
"                                        .......                                        "
};
