/* XPM */
static char *_526eab26b0649ffe8becfa235bcb788[] = {
/* columns rows colors chars-per-pixel */
"42 42 14 1 ",
"  c None",
". c #323C39",
"X c #663931",
"o c #4B692F",
"O c #AC3232",
"+ c #8A6F30",
"@ c #D95763",
"# c #6ABE30",
"$ c #FBF236",
"% c #8F974A",
"& c #99E550",
"* c #76428A",
"= c #D77BBA",
"- c white",
/* pixels */
"                                          ",
"                                          ",
"                                          ",
"                                          ",
"                                          ",
"                                          ",
"                                          ",
"                                          ",
"                                          ",
"                                          ",
"                                          ",
"                                          ",
"                                          ",
"                                          ",
"                                          ",
"                                          ",
"                                          ",
"                                          ",
"                                          ",
"                                          ",
"                                          ",
"               %                          ",
"               %                          ",
"               #                          ",
"               #                          ",
"               #        o#o               ",
"               #       o   o              ",
"          =O   XX     o    o              ",
"         OO=O  XX     #   o$o             ",
"          OO   X+     o   $&$     % @     ",
"          o#o  X+    o   $&$&$    o=* .   ",
"   %       o=O XX    o #        %  o .o   ",
" -- o  %=O OO=OXX   ## %    %  % % o #.   ",
"--- o oOO=OoOO #    %o %   o  o o   o #   ",
"--o o o OOo#o#o#    %%%    o  o o   o . @ ",
" #o o o o#o#ooo# #   %%   #o  o o   o.o *=",
" ##  oo ooo=O.o# $% o %   %o  o o   o .#  ",
" #   oooo.OO=O ##oo o oo o o  o o   o #   ",
" #   ooooo#OO#o# o# oooo o o o  o   @ o.  ",
" #   oo ..%o#%o#$oooooooo  o o  o  =* .   ",
" o   oo #oo%o%o%o# o o oo  o o  o   %.o   ",
" o   %o  %oooo%% $  ooooo  o o  o   % o.  "
};
