/* XPM */
static char *_b2ac10a24ed49ece5576fe9276d4ea0[] = {
/* columns rows colors chars-per-pixel */
"130 130 25 1 ",
"  c None",
". c black",
"X c #222034",
"o c #663931",
"O c #595652",
"+ c #8F563B",
"@ c #8E573B",
"# c #8D583B",
"$ c #C27F2E",
"% c #C57F2E",
"& c #CB7E2D",
"* c #C87F2E",
"= c #C97F2E",
"- c #CC7D2C",
"; c #CE7D2C",
": c #CF7D2C",
"> c #D07D2C",
", c #D17D2C",
"< c #D27D2C",
"1 c green",
"2 c #BC802F",
"3 c #B98231",
"4 c #D9D45E",
"5 c #DAD45E",
"6 c white",
/* pixels */
"                                                                                                                                  ",
"                                                         XXXXXXXXXXXXXXXX                                                         ",
"                                                   XXXXXX+<<<<<<<<<<<<<<+XXXXXX                                                   ",
"                                               XXXX+<<<<<<<<<<<<<<<<<<<<<<<<<<+XXXX                                               ",
"                                            XXX+<<<<<<<<<<<<<<<<<<<<<<<<<<<<<<<+++oXXX                                            ",
"                                         XXX+<<<<<<<<<<<<<<<<<<<<<<<<<<<<<<<<<<<<<<++oXXX                                         ",
"                                       XX+<<<<<<<<<5<5<<<<<<<<<<<<<<<<<<5<5<<<<<<<<<<<<+oXX                                       ",
"                                     XX+<<<<<<<<5<<<<<<5<5<5<5<<5<5<5<5<<<<<<5<<<<<<<<<<<+oXX                                     ",
"                                   XX+<<<<<<<5<<<<5<5<5<5<5<5<55<5<5<5<5<5<5<<<<5<<<<<<<<<++oXX                                   ",
"                                 XX+<<<<<<5<<<<5<5<5<5<5555555555555555<5<5<5<5<<<<5<<<<<<<<++oXX                                 ",
"                               XX+<<<<<<5<<<5<5<5<55555555555555555555555555<5<5<5<<<5<<<<<<<<++oXX                               ",
"                              XX<<<<<<5<<<<5<5<55555555<5<5<5<55<5<5<5<55555555<5<5<<<<5<<<<<<<+++XX                              ",
"                            XX+<<<<5<<<<5<5<555555<5<5<5<<<<<<<<<<<<<<5<5<5<555555<5<5<<<<5<<<<<+++oXX                            ",
"                           XX<<<<<<<<5<5<555555<5<5<<<<<<<<<<<<<<<<<<<<<<<<5<5<555555<5<5<<<<<<<<++++XX                           ",
"                          X+<<<<<5<<5<5<5555<5<5<<<<<<<<<<<<<<<<<<<<<<<<<<<<<<5<5<5555<5<5<<5<<<<<+++++XXXX                       ",
"                        XX+<<<<5<<<5<555555<5<<<<<<<<<<<<+++++++++++++++++<<<<<<<5<555555<5<<<5<<<<<<<<<<<<XXX                    ",
"                       X+<<<<5<<<<5<5555<5<<<<<<<<<<+++++++++++++++++++++++++++<<<<<5<5555<5<<<<<<<<<5<5<5<<<<X                   ",
"                      X+<<<<<<<5<5<5555<5<<<<<<<<++++++++1111111111111111+++++++++<<<5<5555<5<5<<<55<<++++<<<<<X                  ",
"                     X+<<<<5<<5<5<5555<<<<<<<<++++++11111111111111111111111111++++++<<<<5555<5<<<5<++......+<<<<.                 ",
"                    X+<<<<<<<5<5<5555<<<<<<<+++++11111111111111111111111111111111+++++<<<5555<<<5<+..OOOOOO..+<<<.                ",
"                   X+<<<<5<<5<555555<<<<<<++++11111111111111111111111111111111111111++++<<5<5<<5<+.OOOOOOOOOO.<<<<.               ",
"                  X+<<<<<<<5<55565<<<<<<++++111111111111111111111111111111111111111111++++<5<<<5+.OOOOOOOOOOOOX<<<.               ",
"                 X+<<<<5<<5<55555<<:<:+@++1111111111111111111111111111111111111111111111+++<<<<<+.OOOOOOOOOOOOX<<<.               ",
"                X+<<<<<<<5<55565<::<+@++11111111111111111111111111111111111111111111111111++<<5<.OOOOOOOOOOOOOOX<<+.              ",
"               X+<<<<5<<5<55655::&%+++111111111111111111111111111111111111111111111111111111+<<+.OOOOOOOOOOOOOOX<<<.              ",
"               X<<<<<<<5<55655::&$@@111111111111111111111111111111111111111111111111111111111<5+.OOOOOOOOOOOOOOX5<<.              ",
"              X+<<<5<<5<56655:&%2++1111111111111111111111111111111111111111111111111111111111<<+.OOOOOOOOOOOOOOX<<+.              ",
"             X+<<<<<<5<55665>&%3++11111111111111111111111111111111111111111111111111111111111<5+.OOOOOOOOOOOOOOX5<++.             ",
"            XX<<<5<<5<55655<>%$++111111111111111111111111111111111111111111111111111111111111<<<.OOOOOOOOOOOOOOX<<++..            ",
"            X<<<<<<5<55655<<:$++11111111111111111111111111111111111111111111111111111111111111<<+.OOOOOOOOOOOOX<5<+++.            ",
"           X+<<<5<5<55555<<:&++111111111111111111111111111111111111111111111111111111111111111<<<.OOOOOOOOOOOOX<5++++o.           ",
"          XX<<<<<<<5<565<<<:@+1111111111111111111111111111111111111111111111111111111111111111<<<+XOOOOOOOOOOX<5<+++++..          ",
"          X<<<<5<<5<555<<<<#+111111111111111111111111111111111111111111111111111111111111111111<<<+XXOOOOOOXX<5<++<<+++.          ",
"         X+<<<5<<5<565<<<<+#11111111111111111111111111111111111111111111111111111111111111111111<<<<+XXXXXX<<5<++<<<+++o.         ",
"         X<<<<<<5<555<<<<++1111111111111111111111111111111111111111111111111111111111111111111111<<<<<<5<5<55<++<<<<<+++.         ",
"        X+<<5<<5<5555<<<++111111111111111111111111111111111111111111111111111111111111111111111111<<<<<<<<<<+++<5<<<<+++o.        ",
"        X<<<<<5<5555<<<++11111111111111111111111111111111111111111111111111111111111111111111111111111<<++++++<<<<<<<<+++.        ",
"       X+<<<<5<5555<<<<++11111111111111111111111111111111111111111111111111111111111111111111111111111111++<<<<5<<5<<<+++o.       ",
"       X<<<5<<5555<<<<++111111111111111111111111111111111111111111111111111111111111111111111111111111111<<<555<5<<<<<<+++.       ",
"      X+<<<<<5<55<<<<<++1111111111111111111111111111111111111111111111111111111111111111111111111111111111<<5555<5<<<<<+++o.      ",
"      X<<<5<5<55<5<<<++111111111111111111111111111111111111111111111111111111111111111111111111111111111111<<5555<<5<<<<+++.      ",
"     X+<<<<<<5555<<<<++111111111111111111111111111111111111111111111111111111111111111111111111111111111111<<<55<5<<<<<<+++o.     ",
"     X<<<5<<5555<<<<++11111111111111111111111111111111111111111111111111111111111111111111111111111111111111<5<55<5<5<<<<+++.     ",
"     X<<<<<5<55<<<<<++11111111111111111111111111111111111111111111111111111111111111111111111111111111111111<<5555<<<<<<<+++.     ",
"    X+<<<<5<55<5<<<++1111111111111111111111111111111111111111111111111111111111111111111111111111111111111111<<5555<<5<<<+++o.    ",
"    X<<<5<<5555<<<<++1111111111111111111111111111111111111111111111111111111111111111111111111111111111111111<<<55<5<<<<<<+++.    ",
"    X<<<<<5<55<<<<++111111111111111111111111111111111111111111111111111111111111111111111111111111111111111111<5<55<5<<<<<+++.    ",
"   X+<<<<5<55<5<<<++111111111111111111111111111111111111111111111111111111111111111111111111111111111111111111<<5555<<5<<<+++o.   ",
"   X<<<5<<5555<<<<++111111111111111111111111111111111111111111111111111111111111111111111111111111111111111111<<<55<5<<<<<<+++.   ",
"   X<<<<<5<55<<<<++11111111111111111111111111111111111111111111111111111111111111111111111111111111111111111111<5<55<5<<<<<+++.   ",
"   X<<<<5<55<5<<<++11111111111111111111111111111111111111111111111111111111111111111111111111111111111111111111<<5555<<5<<<+++.   ",
"  X+<<5<<5555<<<<++11111111111111111111111111111111111111111111111111111111111111111111111111111111111111111111<<<55<5<<<<<+++o.  ",
"  X<<<<<5<55<<<<++1111111111111111111111111111111111111111111111111111111111111111111111111111111111111111111111<5<55<5<<<<<+++.  ",
"  X<<<5<<5555<<<++1111111111111111111111111111111111111111111111111111111111111111111111111111111111111111111111<<5555<<5<<<+++.  ",
"  X<<<<<5<55<<<<++1111111111111111111111111111111111111111111111111111111111111111111111111111111111111111111111<<<55<5<<<<<+++.  ",
"  X<<<<5<55<5<<<++1111111111111111111111111111111111111111111111111111111111111111111111111111111111111111111111<<5555<<5<<<+++.  ",
"  X<<<<<5555<<<<++1111111111111111111111111111111111111111111111111111111111111111111111111111111111111111111111<<<55<5<<<<<+++.  ",
" X+<<<<5<55<<<<++111111111111111111111111111111111111111111111111111111111111111111111111111111111111111111111111<5<55<5<<<<+++o. ",
" X<<<<<<5555<<<++111111111111111111111111111111111111111111111111111111111111111111111111111111111111111111111111<<5555<<5<<<+++. ",
" X<<<<<5<55<<<<++111111111111111111111111111111111111111111111111111111111111111111111111111111111111111111111111<<<55<5<<<<<+++. ",
" X<<<<<<5555<<<++111111111111111111111111111111111111111111111111111111111111111111111111111111111111111111111111<<5555<<5<<<+++. ",
" X<<<<<5<55<<<<++111111111111111111111111111111111111111111111111111111111111111111111111111111111111111111111111<<<55<5<<<<<+++. ",
" X<<<<<<5555<<<++111111111111111111111111111111111111111111111111111111111111111111111111111111111111111111111111<<5555<<5<<<+++. ",
" X<<<<<<5555<<<++111111111111111111111111111111111111111111111111111111111111111111111111111111111111111111111111<<<55<5<<<<<+++. ",
" X<<<<<5<55<<<<++111111111111111111111111111111111111111111111111111111111111111111111111111111111111111111111111<<5555<<5<<<+++. ",
" X<<<<<<5<55<<<++111111111111111111111111111111111111111111111111111111111111111111111111111111111111111111111111<<5555<<5<<<+++. ",
" X<<<<5<<5555<<++111111111111111111111111111111111111111111111111111111111111111111111111111111111111111111111111<<<55<5<<<<<+++. ",
" X<<<<<<5<55<<<++111111111111111111111111111111111111111111111111111111111111111111111111111111111111111111111111<<5555<<5<<<+++. ",
" X<<<<5<<5555<<++111111111111111111111111111111111111111111111111111111111111111111111111111111111111111111111111<<<55<5<<<<<+++. ",
" X<<<<<<5<55<5<++111111111111111111111111111111111111111111111111111111111111111111111111111111111111111111111111<<5555<<5<<<+++. ",
" X<<<<<<<5<55<<++111111111111111111111111111111111111111111111111111111111111111111111111111111111111111111111111<<<55<5<<<<<+++. ",
" X<<<<<5<<5555<++111111111111111111111111111111111111111111111111111111111111111111111111111111111111111111111111<<5555<<5<<<+++. ",
" X+<<<<<<5<55<<++111111111111111111111111111111111111111111111111111111111111111111111111111111111111111111111111<5<55<5<<<<+++o. ",
"  X<<<<5<<5555<+++1111111111111111111111111111111111111111111111111111111111111111111111111111111111111111111111<<<55<5<<<<<+++.  ",
"  X<<<<<<5<55<5<++1111111111111111111111111111111111111111111111111111111111111111111111111111111111111111111111<<5555<<5<<<+++.  ",
"  X<<<<<<<5<55<<++1111111111111111111111111111111111111111111111111111111111111111111111111111111111111111111111<<<55<5<<<<<+++.  ",
"  X<<<<<5<<5555<++1111111111111111111111111111111111111111111111111111111111111111111111111111111111111111111111<<5555<<5<<<+++.  ",
"  X<<<<<<<5<55<5++1111111111111111111111111111111111111111111111111111111111111111111111111111111111111111111111<5<55<5<<<<<+++.  ",
"  X+<<<<<<<5<55<+++11111111111111111111111111111111111111111111111111111111111111111111111111111111111111111111<<<55<5<<<<<+++o.  ",
"   X+<<<<5<<5555<++11111111111111111111111111111111111111111111111111111111111111111111111111111111111111111111<<5555<<5<<<+++.   ",
"   X+<<<<<<5<55<5++11111111111111111111111111111111111111111111111111111111111111111111111111111111111111111111<5<55<5<<<<<+++.   ",
"   X+<<<<<<<5<55<+++111111111111111111111111111111111111111111111111111111111111111111111111111111111111111111<<<55<5<<<<<<+++.   ",
"   Xo<<<<<5<<5555<++111111111111111111111111111111111111111111111111111111111111111111111111111111111111111111<<5555<<5<<<+++o.   ",
"    X+<<<<<<<<5555++111111111111111111111111111111111111111111111111111111111111111111111111111111111111111111<5<55<5<<<<<+++.    ",
"    X+<<<<<5<5<<<<<++1111111111111111111111111111111111111111111111111111111111111111111111111111111111111111<<<55<5<<<<<<+++.    ",
"    Xo<<<<<<<<<<<<<<<1111111111111111111111111111111111111111111111111111111111111111111111111111111111111111<<5555<<5<<<+++o.    ",
"     X<<<<<<<<<5<5<5<<<<111111111111111111111111111111111111111111111111111111111111111111111111111111111111<<5555<<<<<<<+++.     ",
"     X+<<<<<55<<++++<<<<<11111111111111111111111111111111111111111111111111111111111111111111111111111111111<5<55<5<5<<<<+++.     ",
"     Xo<<<<5<++......+<<<<111111111111111111111111111111111111111111111111111111111111111111111111111111111<<<55<5<<<<<<+++o.     ",
"      X<<<5<+..OOOOOO..+<<<11111111111111111111111111111111111111111111111111111111111111111111111111111111<<5555<<5<<<<+++.      ",
"      X+<5<+.OOOOOOOOOO.<<<<111111111111111111111111111111111111111111111111111111111111111111111111111111<<5555<5<<<<<+++o.      ",
"       X<5+.OOOOOOOOOOOOX<<<11111111111111111111111111111111111111111111111111111111111111111111111111111<<5555<5<<<<<<+++.       ",
"       X<<+.OOOOOOOOOOOOX<<<11111111111111111111111111111111111111111111111111111111111111111111111111111<5555<5<<5<<<+++o.       ",
"      X<5<.OOOOOOOOOOOOOOX<<1111111111111111111111111111111111111111111111111111111111111111111111111111<<555<5<<<<<<<+++.        ",
"      X<<+.OOOOOOOOOOOOOOX<<<11111111111111111111111111111111111111111111111111111111111111111111111111<<555<5<<5<<<<+++o.        ",
"      X<5+.OOOOOOOOOOOOOOX5<<11111111111111111111111111111111111111111111111111111111111111111111111111<555<5<<<<<<<<+++.         ",
"      X<<+.OOOOOOOOOOOOOOX<<+1111111111111111111111111111111111111111111111111111111111111111111111111<55555<5<5<<<<+++o.         ",
"      X<5+.OOOOOOOOOOOOOOX5<+111111111111111111111111111111111111111111111111111111111111111111111111<55555<5<<<<<<<+++.          ",
"      X<<<.OOOOOOOOOOOOOOX<<++1111111111111111111111111111111111111111111111111111111111111111111111<55555<5<<5<<<<+++..          ",
"       X<<+.OOOOOOOOOOOOX<5<+<<11111111111111111111111111111111111111111111111111111111111111111111<55555<5<<<<<<<+++o.           ",
"       X<<<.OOOOOOOOOOOOX<5++5<+111111111111111111111111111111111111111111111111111111111111111111<55555<5<<5<<<<++++.            ",
"       X<<<+XOOOOOOOOOOX<5<++++<<<<<<111111111111111111111111111111111111111111111111111111111111<55555<5<<<<<<<<+++..            ",
"        X<<<+XXOOOOOOXX<5<++<<<5<5<5<<<<11111111111111111111111111111111111111111111111111111111<55555<5<<5<<<<<+++o.             ",
"         X<<<<+XXXXXX<<5<++<55<<++++<<<<<11111111111111111111111111111111111111111111111111111<<55555<5<<<<<<<<+++o.              ",
"          .<<<<<<5<5<55<++<5<++......+<<<<111111111111111111111111111111111111111111111111111<<55555<5<<5<<<<<++++.               ",
"           .<<<<<<<<<<+++<5<+..OOOOOO..+<<<111111111111111111111111111111111111111111111111<<<55555<5<<<<<<<<++++o.               ",
"            ...+<<++++++<5<+.OOOOOOOOOO.<<<<1111111111111111111111111111111111111111111111<<555555<5<<5<<<<<++++o.                ",
"               ...++++++<5+.OOOOOOOOOOOOX<<<11111111111111111111111111111111111111111111<<<5555<5<5<<<<<<<<++++o.                 ",
"                  Xo++++<<+.OOOOOOOOOOOOX<<<111111111111111111111111111111111111111111<<<<5555<5<5<<5<<<<<++++o.                  ",
"                   Xo++<5<.OOOOOOOOOOOOOOX<<++11111111111111111111111111111111111111<<<5<5555<5<5<<<<<<<<++++o.                   ",
"                    Xo+<<+.OOOOOOOOOOOOOOX<<<+<<<11111111111111111111111111111111<<<<<5<5555<5<<<<5<<<<<++++o.                    ",
"                     XX<5+.OOOOOOOOOOOOOOX5<<+5<<<<<11111111111111111111111111<<<<<5<555555<5<<<5<<<<<<++++o.                     ",
"                      X<<+.OOOOOOOOOOOOOOX<<++<5<5<<<<<<<1111111111111111<<<<<<<5<5<5555<5<5<<5<<<<<<<++++o.                      ",
"                      X<5+.OOOOOOOOOOOOOOX5<++555<5<5<<<<<<<<<<<<<<<<<<<<<<<<5<5<555555<5<5<<<<<<<<<+++++o.                       ",
"                      X<<<.OOOOOOOOOOOOOOX<<++555555<5<5<5<<<<<<<<<<<<<<5<5<5<555555<5<5<<<<5<<<<<<++++o..                        ",
"                       X<<+.OOOOOOOOOOOOX<5<+5<5<55555555<5<5<5<55<5<5<5<55555555<5<5<<<<5<<<<<<<<++++o.                          ",
"                       X<<<.OOOOOOOOOOOOX<5++<5<5<5<55555555555555555555555555<5<5<5<<<5<<<<<<<<+++++..                           ",
"                       X<<<+XOOOOOOOOOOX<5<++<<<<5<5<5<5<5555555555555555<5<5<5<5<<<<5<<<<<<<<+++++o.                             ",
"                        X<<<+XXOOOOOOXX<5<++<<<5<<<<5<5<5<5<5<5<55<5<5<5<5<5<5<<<<5<<<<<<<<<++++++..                              ",
"                         X<<<<+XXXXXX<<5<++<<<<<<<5<<<<<<5<5<5<5<<5<5<5<5<<<<<<5<<<<<<<<<<++++++o.                                ",
"                          .<<<<<<5<5<55<++<<<<<<<<<<<5<5<<<<<<<<<<<<<<<<<<5<5<<<<<<<<<<<++++++o..                                 ",
"                           .<<<<<<<<<<+++++++<<<<<<<<<<<<<5<5<5<55<5<5<5<<<<<<<<<<<<<+++++++o..                                   ",
"                            ...+<<+++..+++++++++<<<<<<<<<<<<<<<<<<<<<<<<<<<<<<<<<<++++++++o..                                     ",
"                               ......  ..o++++++++++<<<<<<<<<<<<<<<<<<<<<<<<<<++++++++++o..                                       ",
"                                         ...o+++++++++++++<<<<<<<<<<<<<<+++++++++++++o...                                         ",
"                                            ...o++++++++++++++++++++++++++++++++++o...                                            ",
"                                               ....o++++++++++++++++++++++++++o....                                               ",
"                                                   ......o++++++++++++++o......                                                   ",
"                                                         ................                                                         ",
"                                                                                                                                  "
};
