/* XPM */
static char *_3d5ff2a110943f9f73ef31111b8944c[] = {
/* columns rows colors chars-per-pixel */
"32 32 4 1 ",
"  c #AE6200",
". c #C58400",
"X c #CEA600",
"o c #CAC500",
/* pixels */
".XoXXo.   XXXXX...XXXX.         ",
"oXX.. .XXXoXXX...XXXX.   ..XXXXo",
".    .XXoXX.  oXXXX.   .XXXXXXX.",
"  .XXXXX.   ..XXX.    XXXXX..   ",
"XXXX..     .XXX.   ...XX.     ..",
"XXX.     .XXXXXXXXXX..   .XXXXXX",
"      .XXXXXoooX..    .XXXXXXX..",
" ....XXX....      ..XXXX.       ",
"XXXXoXXXX.   ..XXXX....   .XXXXX",
"oXXX...  ..XXXXXX..   ..XXXXXXXX",
".XX..   .......   ..XXXXoXXX.   ",
"XXX.   ....   ..XXXXXoXX.     ..",
"..    ....   .XXXXoX.      .XXX.",
"     ....   ......      ..XXXXX.",
"   .XXXX   ....       .XXXoX.   ",
" .XXoXX   .XX.    ...XoooX.     ",
"XXoX..  .XoX.   ....XXXX.     .X",
"oX.    XXX..  .XXX          .Xoo",
".     ....   XX.        .XoooooX",
"   ..XXXX  ....      .XXXXXXX.  ",
".XXXXoXX..XXX.      XXX...     .",
"X..   .XXX..       .XXXX     .XX",
"     .XX..       XXX..    .XXX. ",
"..XXXXX..   .XXXX...            ",
"ooXXX......XXXXX..      ...XXXoo",
"...    ..XXX.      ..XXXXXoooXXX",
"     .......     XXXXXXXXX..    ",
"  ..XXXXXX     ...XX..          ",
"XXXXX.      XXXXXX.           XX",
"XXX.   ......XXXX.         ..XXX",
"    ....XXX.  ...     .....XXXX.",
"   .XXXX.   .XXX...XXXXXX....   "
};
