/* XPM */
static char *_4a3aab4ad41442c9e94d2c7628c9205[] = {
/* columns rows colors chars-per-pixel */
"87 87 12 1 ",
"  c None",
". c black",
"X c #000E00",
"o c #001100",
"O c #001400",
"+ c #002100",
"@ c #003300",
"# c #003C00",
"$ c #004500",
"% c #005200",
"& c #005A00",
"* c #415600",
/* pixels */
"                                                                                       ",
"                                                                                       ",
"                                                                                       ",
"                                                                                       ",
"                                                                                       ",
"                                                                                       ",
"                                                                                       ",
"                                                                                       ",
"                                                                                       ",
"                                                                                       ",
"                                                                                       ",
"                                                                                       ",
"                                                                                       ",
"                                                                                       ",
"                                                                                       ",
"                                                                                       ",
"                                                                                       ",
"                                                                                       ",
"                                                                                       ",
"                                                                                       ",
"                                                                                       ",
"                                                                                       ",
"                                                                                       ",
"                                                                                       ",
"                                                                                       ",
"                                                                                       ",
"                                                                                       ",
"                                                                                       ",
"                                                                                       ",
"                                         .....                                         ",
"                                      ...&o&%...  ..                                   ",
"                                .    ..&###o&oo#..$.                                   ",
"                                ......&%####&o..**.                                    ",
"                                 .***$.#####&o.***.                                    ",
"                                  .***.#####&o.**.o.                                   ",
"                                  ..*..#####&oo...o.                                   ",
"                                  ....##.....#oooo&..                                  ",
"                                  .##&##.***.#oooo&o.                                  ",
"                                  .##&##.***.#oooo&o.                                  ",
"                                  .##&##.**.&#oooo&o.                                  ",
"                                  .##&##...#&#oooo&..                                  ",
"                                  .##&######&#oooo......                               ",
"                                  .##&######&#oooo.****..                              ",
"                                  .##&######&#oooo.**X.                                ",
"                                  .##&######&#oooo....                                 ",
"                                  .##&######&...oo&..                                  ",
"                                  ......####&.*..o&o.                                  ",
"                                ..+****.####&.***.&o.                                  ",
"                                  ..***.####&.**.O&o.                                  ",
"                                  ......####&.*$.o&o.                                  ",
"                                  .##..#####&#..oo&o.                                  ",
"                                  .##&######&#oooo&o.                                  ",
"                                  .##&####.#&#oooo&o.                                  ",
"                                  .##&###...&#oooo&o.                                  ",
"                                  .##&#..**.&#oooo...                                  ",
"                                .....&#.***.&#ooo.**....                               ",
"                              ..$****.#O.**.&#ooo.****..                               ",
"                                ..***.##....&#ooo.**$..                                ",
"                                 ..@.&######&#oooO...                                  ",
"                                  ..O&######&#oooo&o.                                  ",
"                                  .##&######&#oooo&o.                                  ",
"                                  .##&######&#oooo&o.                                  ",
"                                  .##&######&#oooo&o.                                  ",
"                                  .##&######&#oooo&o.                                  ",
"                                  .##&##...#&#...o&o.                                  ",
"                                  .##&#..*.#&#.**..o.                                  ",
"                                  .##&.@**.#&.****...                                  ",
"                                  .##&..**.#&..*X....                                  ",
"                                  .##&#..*.#&#...o&o.                                  ",
"                                  .##&##..##&#oooo&o.                                  ",
"                                  .##&######&#oooo&o.                                  ",
"                                  .#....####&#oooo&o.                                  ",
"                                 ...***.####&#oooo&o.                                  ",
"                                  ..***.####&#oooo&o.                                  ",
"                                  ...$*.####&#oooo&o.                                  ",
"                                  .##..#####&#oooo&o.                                  ",
"                                  .##&######&#oo...o.                                  ",
"                                  .##&######&#o..*...                                  ",
"                                  .##&###..#&#o.****..                                 ",
"                                  .##&##.*..&#o.***....                                ",
"                                  .##&##.**.%#oo....                                   ",
"                                  ..#&##.***.#oooo&.                                   ",
"                                   .#&##..**.#oooo.                                    ",
"                                    .&####..&#ooo..                                    ",
"                                    ..######&#oo..                                     ",
"                                      ..####&#o..                                      ",
"                                       ........                                        "
};
