/* XPM */
static char *_e0d560451894fca90ec635f8c22dd73[] = {
/* columns rows colors chars-per-pixel */
"87 87 11 1 ",
"  c None",
". c black",
"X c #002700",
"o c #002D00",
"O c #004C00",
"+ c #004F00",
"@ c #006500",
"# c #007600",
"$ c #007F00",
"% c #008800",
"& c #2D8400",
/* pixels */
"                                                                                       ",
"                                                                                       ",
"                                                                                       ",
"                                                                                       ",
"                                                                                       ",
"                                                                                       ",
"                                                                                       ",
"                                                                                       ",
"                                                                                       ",
"                                                                                       ",
"                                                                                       ",
"                                                                                       ",
"                                                                                       ",
"                                                                                       ",
"                                                                                       ",
"                                                                                       ",
"                                                                                       ",
"                                                                                       ",
"                                                                                       ",
"                                                                                       ",
"                                                                                       ",
"                                                                                       ",
"                                                                                       ",
"                                                                                       ",
"                                                                                       ",
"                                                                                       ",
"                                                                                       ",
"                                                                                       ",
"                                                                                       ",
"                                                                                       ",
"                                                                                       ",
"                                                                                       ",
"                                                                                       ",
"                                                                                       ",
"                                                                                       ",
"                                                                                       ",
"                                                                                       ",
"                                                                                       ",
"                                                                                       ",
"                                                                                       ",
"                                                                                       ",
"                                                                                       ",
"                                                                                       ",
"                                                                                       ",
"                                                                                       ",
"                                                                                       ",
"                                                                                       ",
"                                                                                       ",
"                                                                                       ",
"                                                                                       ",
"                                                                                       ",
"                                                                                       ",
"                                                                                       ",
"                                                                                       ",
"                                                                                       ",
"                                                                                       ",
"                                                                                       ",
"                                          .                                            ",
"                                        .......                                        ",
"                               .     ...@.&.X%o..                                      ",
"                               ... ..%%%@.&.%XXXX..                                    ",
"                               .&&..@@@@.&&..XXXXXX....                                ",
"                               .&&&..@@@.&&&.XXXXX..&&.                                ",
"                                .&&O.@@@..&..XXXX.&&&.                                 ",
"                               ..&..@@@$%..@%%%XX.&&&..                                ",
"                              ..@..@@%%%@@@%@XX%%%.&..X.                               ",
"                              .@@@@%.@@@@@@%@@XXXX%..XX.                               ",
"                              .@@@%%....@@@%%...XXX%%XXX.                              ",
"                            ...@@%@O.&&&.@@#.&&.XXXXX%XX.                              ",
"                            .&&...@.&&&..@%.&&&..XXXXX%X.                              ",
"                             .&&&.@..&..@@%..&&&.XXXXX$%.                              ",
"                             .&&&.@@..@@@@%@@....XXXXXX%X.                             ",
"                             ....@@@@@@@@@%@@@@%@XXXXXXX%.                             ",
"                             .@.@@@@@@@@@%@@@@@$%XXXX.XX%.                             ",
"                             .@@@@@@@@@@@%@@@@@@%XXX.....                              ",
"                             .@@@@@@@@@@...@@@@@@%XX.&&..                              ",
"                             .@@@@@@@@@@.&&.@@@@@%X.&&&&&.                             ",
"                              .@@@..@@@@.&&.@@@@@X%X.......                            ",
"                              .@@.&&.@@$.&&&.@@@@X%XXXX.                               ",
"                              ....&&.@@......@@@@X%XXXX.                               ",
"                               ..&&&.@@%@@@@@@@@...%XX.                                ",
"                               .&....@%@@@@@@@@.&&.%X..                                ",
"                               ...@@@#%@@@@@@@.&&&.%..                                 ",
"                                  .@@%@@@@@@@@..&&...                                  ",
"                                   ..%@@@@@@@@@....                                    ",
"                                     ..o@@@@@@@...                                     ",
"                                       ........                                        "
};
