/* XPM */
static char *cf0059c4ed744b5ebbe94083c772663f[] = {
/* columns rows colors chars-per-pixel */
"32 32 4 1 ",
"  c #9D3600",
". c #B66A00",
"X c #BCB600",
"o c #C09300",
/* pixels */
"o...ooooooooXXo.oooo.   oooooooo",
". .ooo.oo.ooXo.ooo..  .oo..ooooo",
" .ooo..oo.oXX..oo...oooo..ooo.. ",
"..o. .oo..oXX.oo..oooo.  .o...  ",
"... ooo..ooXX.o..ooo..    ...oo.",
".. ooo..ooXXXo..o...   .ooXXXo..",
".  oo..ooXXX.o......ooooXXXo....",
"o .oo.oXXXXo....ooooooXXXXo.....",
". ooooooXXXo.ooXXXXoooooo....o.o",
"..oooooXXXXXXXXXXXoooooo...ooo..",
".ooooXXXXXXXXXo....ooo. ..ooo...",
"ooooXXXXooXXo....ooo..  .oooo..o",
"oooXXXXoooXo..ooooo.   .ooooo.oo",
".oXXXooooXX.ooooo..   .oooooooo.",
"oXo.ooooXXooo.  ... .....o.oo...",
"oo..oooXXooo.  ......o....oo...o",
"o..oooXooooo ......ooo...oo...oo",
"..o..oooooo.......ooo..ooooooooo",
" ...oooooo. ......oo..oXXXoo....",
" ..oooooo......o..ooooXXXo.     ",
"..oooo.......oo..ooooXXXo.....  ",
"oooo........ooo..oooXXXo.oooo  .",
"oXoo.ooo...oooo.oooXXXoooooo  .o",
"oXooooo....ooXXXXXXXo...ooo.  oo",
"oXo.oo....oooooXXXXo...ooo.. .oo",
"XX..o..o..oooXXXXo...ooooo...ooo",
"Xo....o..oooXXXXo...oXXoo...oooX",
"Xo...oo.ooXXXXXXXXXXXXooo..oooXX",
"o..ooo..oXXXoooXXXXXXoooo .ooXXX",
"..ooo..XXXXoooXXXXo....o. oooXX.",
"oooo..oXXXoooXXXXo..ooo. .ooXX..",
"oo...oXXooooXXXX...ooo. .ooXXooo"
};
